<svg width="40" height="41" viewBox="0 0 40 41" fill="none" xmlns="http://www.w3.org/2000/svg">
<rect y="0.171021" width="40" height="40" rx="12" fill="#E0E0E0"/>
<g clip-path="url(#clip0_5001_30061)">
<path d="M20 8.17102C16.7435 8.17102 16.334 8.18602 15.0545 8.24302C13.775 8.30302 12.9035 8.50402 12.14 8.80102C11.3391 9.10225 10.6137 9.57476 10.0145 10.1855C9.40411 10.7851 8.93166 11.5104 8.63 12.311C8.333 13.073 8.1305 13.946 8.072 15.221C8.015 16.5035 8 16.9115 8 20.1725C8 23.4305 8.015 23.8385 8.072 25.118C8.132 26.396 8.333 27.2675 8.63 28.031C8.9375 28.82 9.347 29.489 10.0145 30.1565C10.6805 30.824 11.3495 31.235 12.1385 31.541C12.9035 31.838 13.7735 32.0405 15.0515 32.099C16.3325 32.156 16.7405 32.171 20 32.171C23.2595 32.171 23.666 32.156 24.947 32.099C26.2235 32.039 27.098 31.838 27.8615 31.541C28.6618 31.2396 29.3867 30.7671 29.9855 30.1565C30.653 29.489 31.0625 28.82 31.37 28.031C31.6655 27.2675 31.868 26.396 31.928 25.118C31.985 23.8385 32 23.4305 32 20.171C32 16.9115 31.985 16.5035 31.928 15.2225C31.868 13.946 31.6655 13.073 31.37 12.311C31.0684 11.5104 30.5959 10.785 29.9855 10.1855C29.3864 9.57453 28.661 9.10199 27.86 8.80102C27.095 8.50402 26.222 8.30152 24.9455 8.24302C23.6645 8.18602 23.258 8.17102 19.997 8.17102H20.0015H20ZM18.9245 10.334H20.0015C23.2055 10.334 23.585 10.3445 24.8495 10.403C26.0195 10.4555 26.6555 10.652 27.0785 10.8155C27.638 11.033 28.0385 11.294 28.4585 11.714C28.8785 12.134 29.138 12.533 29.3555 13.094C29.5205 13.5155 29.7155 14.1515 29.768 15.3215C29.8265 16.586 29.8385 16.9655 29.8385 20.168C29.8385 23.3705 29.8265 23.7515 29.768 25.016C29.7155 26.186 29.519 26.8205 29.3555 27.2435C29.1631 27.7646 28.856 28.2357 28.457 28.622C28.037 29.042 27.638 29.3015 27.077 29.519C26.657 29.684 26.021 29.879 24.8495 29.933C23.585 29.99 23.2055 30.0035 20.0015 30.0035C16.7975 30.0035 16.4165 29.99 15.152 29.933C13.982 29.879 13.3475 29.684 12.9245 29.519C12.4032 29.3269 11.9317 29.0204 11.5445 28.622C11.1451 28.2351 10.8376 27.7635 10.6445 27.242C10.481 26.8205 10.2845 26.1845 10.232 25.0145C10.175 23.75 10.163 23.3705 10.163 20.165C10.163 16.961 10.175 16.583 10.232 15.3185C10.286 14.1485 10.481 13.5125 10.646 13.0895C10.8635 12.53 11.1245 12.1295 11.5445 11.7095C11.9645 11.2895 12.3635 11.03 12.9245 10.8125C13.3475 10.6475 13.982 10.4525 15.152 10.3985C16.259 10.3475 16.688 10.3325 18.9245 10.331V10.334ZM26.4065 12.326C26.2174 12.326 26.0301 12.3633 25.8554 12.4356C25.6807 12.508 25.522 12.6141 25.3883 12.7478C25.2545 12.8815 25.1485 13.0402 25.0761 13.215C25.0037 13.3897 24.9665 13.5769 24.9665 13.766C24.9665 13.9551 25.0037 14.1424 25.0761 14.3171C25.1485 14.4918 25.2545 14.6505 25.3883 14.7843C25.522 14.918 25.6807 15.024 25.8554 15.0964C26.0301 15.1688 26.2174 15.206 26.4065 15.206C26.7884 15.206 27.1547 15.0543 27.4247 14.7843C27.6948 14.5142 27.8465 14.1479 27.8465 13.766C27.8465 13.3841 27.6948 13.0178 27.4247 12.7478C27.1547 12.4777 26.7884 12.326 26.4065 12.326ZM20.0015 14.009C19.1841 13.9963 18.3723 14.1462 17.6135 14.4502C16.8546 14.7542 16.1638 15.2061 15.5812 15.7797C14.9987 16.3532 14.536 17.0369 14.2203 17.7909C13.9045 18.545 13.7419 19.3543 13.7419 20.1718C13.7419 20.9893 13.9045 21.7986 14.2203 22.5526C14.536 23.3067 14.9987 23.9904 15.5812 24.5639C16.1638 25.1374 16.8546 25.5893 17.6135 25.8933C18.3723 26.1973 19.1841 26.3473 20.0015 26.3345C21.6193 26.3093 23.1623 25.6489 24.2975 24.4959C25.4326 23.3429 26.0689 21.7898 26.0689 20.1718C26.0689 18.5538 25.4326 17.0006 24.2975 15.8476C23.1623 14.6947 21.6193 14.0343 20.0015 14.009ZM20.0015 16.1705C21.0625 16.1705 22.08 16.592 22.8303 17.3422C23.5805 18.0925 24.002 19.11 24.002 20.171C24.002 21.232 23.5805 22.2496 22.8303 22.9998C22.08 23.75 21.0625 24.1715 20.0015 24.1715C18.9405 24.1715 17.923 23.75 17.1727 22.9998C16.4225 22.2496 16.001 21.232 16.001 20.171C16.001 19.11 16.4225 18.0925 17.1727 17.3422C17.923 16.592 18.9405 16.1705 20.0015 16.1705Z" fill="#333333"/>
</g>
<defs>
<clipPath id="clip0_5001_30061">
<rect width="24" height="24" fill="white" transform="translate(8 8.17102)"/>
</clipPath>
</defs>
</svg>
