<svg width="24" height="24" viewBox="0 0 24 24" fill="none" xmlns="http://www.w3.org/2000/svg">
<path d="M23.9461 1.02901C24.0007 0.892718 24.0141 0.743408 23.9846 0.599594C23.9551 0.455779 23.884 0.323785 23.7802 0.219975C23.6764 0.116166 23.5444 0.0451054 23.4006 0.0156042C23.2568 -0.013897 23.1074 -0.000541715 22.9711 0.0540143L1.15065 8.78251H1.14915L0.471148 9.05251C0.342733 9.10374 0.230976 9.18946 0.148222 9.30021C0.0654668 9.41096 0.0149351 9.54243 0.00220827 9.6801C-0.0105185 9.81776 0.0150548 9.95627 0.0761036 10.0803C0.137152 10.2044 0.2313 10.3091 0.348148 10.383L0.963148 10.773L0.964648 10.776L8.45715 15.543L13.2241 23.0355L13.2271 23.0385L13.6171 23.6535C13.6913 23.7699 13.7961 23.8636 13.92 23.9243C14.044 23.9849 14.1823 24.0102 14.3197 23.9973C14.4571 23.9845 14.5883 23.9339 14.6988 23.8513C14.8093 23.7687 14.8949 23.6572 14.9461 23.529L23.9461 1.02901ZM21.1966 3.86401L9.95565 15.105L9.63315 14.598C9.57406 14.505 9.49519 14.4261 9.40215 14.367L8.89515 14.0445L20.1361 2.80351L21.9031 2.09701L21.1966 3.86401Z" fill="white"/>
</svg>
