<svg width="12" height="13" viewBox="0 0 12 13" fill="none" xmlns="http://www.w3.org/2000/svg">
<path fill-rule="evenodd" clip-rule="evenodd" d="M12.0001 0.85498C12.0001 0.722372 11.9475 0.595195 11.8537 0.501427C11.7599 0.407659 11.6328 0.35498 11.5001 0.35498H5.50014C5.36753 0.35498 5.24036 0.407659 5.14659 0.501427C5.05282 0.595195 5.00014 0.722372 5.00014 0.85498C5.00014 0.987589 5.05282 1.11477 5.14659 1.20853C5.24036 1.3023 5.36753 1.35498 5.50014 1.35498H10.2931L0.146143 11.501C0.0996553 11.5475 0.0627792 11.6027 0.0376201 11.6634C0.012461 11.7241 -0.000488281 11.7892 -0.000488281 11.855C-0.000488281 11.9207 0.012461 11.9858 0.0376201 12.0466C0.0627792 12.1073 0.0996553 12.1625 0.146143 12.209C0.192631 12.2555 0.24782 12.2923 0.30856 12.3175C0.369299 12.3427 0.434399 12.3556 0.500143 12.3556C0.565887 12.3556 0.630987 12.3427 0.691727 12.3175C0.752466 12.2923 0.807655 12.2555 0.854143 12.209L11.0001 2.06198V6.85498C11.0001 6.98759 11.0528 7.11477 11.1466 7.20853C11.2404 7.3023 11.3675 7.35498 11.5001 7.35498C11.6328 7.35498 11.7599 7.3023 11.8537 7.20853C11.9475 7.11477 12.0001 6.98759 12.0001 6.85498V0.85498Z" fill="#0090FF"/>
</svg>
