<svg width="14" height="15" viewBox="0 0 14 15" fill="none" xmlns="http://www.w3.org/2000/svg">
<path d="M9.625 6.04248C9.625 5.92645 9.67109 5.81517 9.75314 5.73312C9.83519 5.65107 9.94647 5.60498 10.0625 5.60498H10.9375C11.0535 5.60498 11.1648 5.65107 11.2469 5.73312C11.3289 5.81517 11.375 5.92645 11.375 6.04248V6.91748C11.375 7.03351 11.3289 7.14479 11.2469 7.22684C11.1648 7.30889 11.0535 7.35498 10.9375 7.35498H10.0625C9.94647 7.35498 9.83519 7.30889 9.75314 7.22684C9.67109 7.14479 9.625 7.03351 9.625 6.91748V6.04248Z" fill="#828282"/>
<path d="M3.0625 0.35498C3.17853 0.35498 3.28981 0.401074 3.37186 0.483121C3.45391 0.565168 3.5 0.676448 3.5 0.79248V1.22998H10.5V0.79248C10.5 0.676448 10.5461 0.565168 10.6281 0.483121C10.7102 0.401074 10.8215 0.35498 10.9375 0.35498C11.0535 0.35498 11.1648 0.401074 11.2469 0.483121C11.3289 0.565168 11.375 0.676448 11.375 0.79248V1.22998H12.25C12.7141 1.22998 13.1592 1.41435 13.4874 1.74254C13.8156 2.07073 14 2.51585 14 2.97998V12.605C14 13.0691 13.8156 13.5142 13.4874 13.8424C13.1592 14.1706 12.7141 14.355 12.25 14.355H1.75C1.28587 14.355 0.840752 14.1706 0.512563 13.8424C0.184374 13.5142 0 13.0691 0 12.605V2.97998C0 2.51585 0.184374 2.07073 0.512563 1.74254C0.840752 1.41435 1.28587 1.22998 1.75 1.22998H2.625V0.79248C2.625 0.676448 2.67109 0.565168 2.75314 0.483121C2.83519 0.401074 2.94647 0.35498 3.0625 0.35498ZM0.875 3.85498V12.605C0.875 12.837 0.967187 13.0596 1.13128 13.2237C1.29538 13.3878 1.51794 13.48 1.75 13.48H12.25C12.4821 13.48 12.7046 13.3878 12.8687 13.2237C13.0328 13.0596 13.125 12.837 13.125 12.605V3.85498H0.875Z" fill="#828282"/>
</svg>
