<svg width="40" height="41" viewBox="0 0 40 41" fill="none" xmlns="http://www.w3.org/2000/svg">
<rect y="0.171021" width="40" height="40" rx="12" fill="#E0E0E0"/>
<g clip-path="url(#clip0_5001_30062)">
<path d="M32.0001 20.2445C32.0001 13.5755 26.6271 8.16949 20.0001 8.16949C13.3701 8.17099 7.99707 13.5755 7.99707 20.246C7.99707 26.2715 12.3861 31.2665 18.1221 32.1725V23.735H15.0771V20.246H18.1251V17.5835C18.1251 14.558 19.9176 12.887 22.6581 12.887C23.9721 12.887 25.3446 13.1225 25.3446 13.1225V16.0925H23.8311C22.3416 16.0925 21.8766 17.024 21.8766 17.9795V20.2445H25.2036L24.6726 23.7335H21.8751V32.171C27.6111 31.265 32.0001 26.27 32.0001 20.2445Z" fill="#333333"/>
</g>
<defs>
<clipPath id="clip0_5001_30062">
<rect width="24" height="24" fill="white" transform="translate(8 8.17102)"/>
</clipPath>
</defs>
</svg>
