<svg width="40" height="41" viewBox="0 0 40 41" fill="none" xmlns="http://www.w3.org/2000/svg">
<rect y="0.171021" width="40" height="40" rx="12" fill="#E0E0E0"/>
<g clip-path="url(#clip0_5001_30060)">
<path d="M20.0765 11.1695H20.21C21.443 11.174 27.6905 11.219 29.375 11.672C29.8842 11.8102 30.3483 12.0797 30.7207 12.4535C31.0932 12.8273 31.361 13.2923 31.4975 13.802C31.649 14.372 31.7555 15.1265 31.8275 15.905L31.8425 16.061L31.8755 16.451L31.8875 16.607C31.985 17.978 31.997 19.262 31.9985 19.5425V19.655C31.997 19.946 31.9835 21.317 31.8755 22.745L31.8635 22.9025L31.85 23.0585C31.775 23.9165 31.664 24.7685 31.4975 25.3955C31.3615 25.9054 31.0938 26.3706 30.7212 26.7445C30.3487 27.1183 29.8844 27.3877 29.375 27.5255C27.635 27.9935 21.0215 28.0265 20.105 28.028H19.892C19.4285 28.028 17.5115 28.019 15.5015 27.95L15.2465 27.941L15.116 27.935L14.8595 27.9245L14.603 27.914C12.938 27.8405 11.3525 27.722 10.622 27.524C10.1127 27.3863 9.6486 27.1172 9.27609 26.7436C8.90358 26.37 8.63577 25.9051 8.4995 25.3955C8.333 24.77 8.222 23.9165 8.147 23.0585L8.135 22.901L8.123 22.745C8.04897 21.7286 8.00795 20.7101 8 19.691L8 19.5065C8.003 19.184 8.015 18.0695 8.096 16.8395L8.1065 16.685L8.111 16.607L8.123 16.451L8.156 16.061L8.171 15.905C8.243 15.1265 8.3495 14.3705 8.501 13.802C8.63704 13.2921 8.90474 12.8269 9.27727 12.453C9.6498 12.0792 10.1141 11.8098 10.6235 11.672C11.354 11.477 12.9395 11.357 14.6045 11.282L14.8595 11.2715L15.1175 11.2625L15.2465 11.258L15.503 11.2475C16.9306 11.2016 18.3587 11.1761 19.787 11.171H20.0765V11.1695ZM17.6 15.9845V23.2115L23.8355 19.5995L17.6 15.9845Z" fill="#333333"/>
</g>
<defs>
<clipPath id="clip0_5001_30060">
<rect width="24" height="24" fill="white" transform="translate(8 8.17102)"/>
</clipPath>
</defs>
</svg>
